<?xml version="1.0" standalone="no"?>
<!DOCTYPE svg PUBLIC "-//W3C//DTD SVG 20010904//EN"
 "http://www.w3.org/TR/2001/REC-SVG-20010904/DTD/svg10.dtd">
<svg version="1.0" xmlns="http://www.w3.org/2000/svg"
 width="400.000000pt" height="400.000000pt" viewBox="0 0 400.000000 400.000000"
 preserveAspectRatio="xMidYMid meet">
<metadata>
Created by potrace 1.14, written by Peter Selinger 2001-2017
</metadata>
<g transform="translate(0.000000,400.000000) scale(0.100000,-0.100000)"
fill="#000000" stroke="none">
<path d="M0 3867 c0 -134 0 -134 25 -145 32 -15 45 -15 45 -2 0 6 -11 15 -24
20 -22 8 -45 30 -31 30 3 0 21 -6 39 -14 30 -12 33 -18 32 -50 -1 -19 -5 -39
-9 -42 -13 -14 -7 -31 23 -60 50 -49 31 -92 -35 -80 -71 14 -65 166 -65 -1773
l0 -1751 642 0 641 0 -41 30 c-43 31 -80 38 -99 19 -16 -16 -67 -7 -71 13 -2
12 5 17 30 20 21 2 33 8 33 18 0 9 -8 14 -20 13 -11 -2 -32 0 -46 3 -21 4 -26
11 -26 34 0 17 4 30 9 30 4 0 8 6 8 14 0 20 50 25 77 8 13 -8 23 -23 23 -33 0
-23 26 -27 89 -13 20 4 23 2 18 -15 -3 -12 -1 -21 4 -21 5 0 9 5 9 10 0 18 20
11 44 -15 13 -14 34 -25 49 -25 30 0 45 -17 23 -26 -9 -3 -16 -11 -16 -18 0
-6 -17 -19 -37 -28 l-38 -17 51 0 c37 -1 53 3 58 14 3 8 12 15 21 15 8 0 15 6
15 13 0 9 11 12 34 9 26 -3 37 1 52 20 39 49 154 17 154 -43 l0 -29 142 0
c140 0 141 0 123 20 -15 17 -16 22 -4 36 11 13 25 15 76 9 51 -5 63 -4 63 8 0
23 34 47 66 47 19 0 41 -11 62 -29 17 -17 32 -27 32 -24 0 3 11 -2 25 -11 13
-9 33 -16 43 -16 10 0 28 -9 40 -20 17 -16 35 -20 94 -20 55 1 69 3 56 11 -10
5 -18 17 -18 25 0 25 39 93 59 104 45 24 120 2 197 -56 38 -29 64 -30 87 -4
23 28 69 25 105 -5 17 -14 41 -25 54 -25 32 0 89 -19 109 -36 13 -11 100 -14
457 -14 l442 0 0 513 0 513 -48 -6 c-47 -6 -63 0 -73 27 -2 6 -33 44 -68 83
-46 52 -79 78 -118 95 -29 13 -53 27 -53 30 0 4 24 3 54 0 47 -6 58 -4 85 16
17 12 31 31 31 41 0 10 4 18 9 18 5 0 17 8 26 17 17 16 92 20 138 7 16 -5 17
29 17 620 0 604 -1 626 -19 626 -14 0 -17 6 -13 25 2 15 0 25 -7 25 -7 0 -9 5
-6 10 9 15 33 -6 38 -33 2 -12 5 293 5 677 l2 699 -83 -5 c-58 -4 -99 -13
-141 -32 -32 -14 -67 -26 -76 -26 -10 0 -20 -5 -22 -12 -3 -7 -21 -12 -41 -12
-20 0 -37 -3 -37 -7 0 -4 -16 -10 -36 -14 -20 -3 -47 -17 -61 -31 -13 -13 -31
-24 -40 -24 -9 0 -14 -3 -10 -6 9 -9 -21 -36 -32 -29 -5 3 -12 1 -16 -4 -3 -6
-11 -8 -18 -5 -22 8 -79 -70 -84 -113 -1 -13 -1 -23 0 -23 1 0 17 4 35 9 20 6
30 6 27 0 -4 -5 1 -9 9 -9 9 0 16 6 16 13 1 6 9 2 19 -10 11 -13 25 -23 32
-23 6 0 25 -13 41 -30 15 -16 34 -30 41 -30 6 0 22 -11 34 -24 32 -33 26 -73
-15 -116 -18 -19 -38 -47 -44 -62 -5 -15 -20 -34 -33 -42 -24 -16 -55 -12 -55
5 0 15 -40 10 -71 -8 -16 -10 -29 -22 -29 -29 0 -12 -46 -38 -70 -39 -36 -2
-100 -17 -105 -25 -3 -5 -16 -5 -30 0 -13 5 -36 5 -54 0 -16 -4 -32 -6 -35 -2
-10 10 -6 72 4 72 6 0 3 15 -7 33 -9 17 -17 36 -18 42 0 5 -11 15 -25 22 -22
11 -25 10 -28 -8 -3 -15 -9 -18 -23 -14 -11 4 -19 2 -19 -5 0 -6 -5 -8 -10 -5
-6 4 -10 -5 -10 -19 0 -19 -7 -27 -24 -32 -14 -3 -27 -12 -30 -20 -3 -8 -10
-14 -16 -14 -13 0 -45 -32 -53 -53 -3 -9 -11 -17 -17 -17 -5 0 -10 -5 -10 -11
0 -15 -25 -35 -78 -61 -24 -11 -46 -27 -49 -35 -3 -7 -11 -13 -19 -13 -8 0
-14 -10 -14 -22 0 -16 -3 -19 -8 -10 -7 9 -13 8 -27 -8 -10 -11 -14 -20 -10
-20 5 0 0 -6 -11 -14 -10 -8 -16 -18 -11 -22 4 -4 7 -2 7 4 0 21 27 12 38 -13
10 -21 9 -23 -6 -18 -9 3 -14 3 -10 -2 4 -4 24 -9 43 -11 27 -2 35 1 32 11 -4
10 3 10 35 2 42 -11 60 -33 37 -48 -11 -7 -11 -9 -1 -9 10 0 12 -8 7 -30 -5
-22 -3 -30 7 -30 8 0 24 -9 36 -20 12 -11 28 -20 36 -20 8 0 18 -4 21 -10 10
-17 25 -11 34 12 7 19 15 22 73 22 37 1 64 -2 62 -6 -3 -4 -2 -19 2 -33 4 -18
13 -25 29 -25 27 0 44 -30 17 -30 -15 -1 -15 -2 2 -15 16 -12 22 -12 28 -2 5
8 8 7 8 -5 0 -10 9 -22 20 -28 16 -8 19 -17 14 -38 -4 -15 -12 -29 -17 -31 -6
-2 1 -10 14 -17 l24 -13 -27 -1 c-21 0 -28 -5 -28 -20 0 -10 -7 -23 -16 -28
-15 -8 -15 -12 0 -40 17 -33 23 -68 7 -43 -5 7 -13 11 -19 7 -6 -3 -13 -2 -17
4 -9 14 -55 12 -55 -2 -1 -35 -15 -39 -95 -27 -43 6 -89 18 -102 26 -33 22
-95 3 -135 -42 -39 -45 -54 -48 -113 -27 -53 19 -89 48 -118 95 -11 18 -26 27
-43 27 -13 0 -27 7 -30 15 -4 8 -13 15 -21 15 -10 0 -13 7 -8 23 5 17 4 18 -4
7 -5 -8 -13 -11 -17 -8 -13 14 -10 53 8 107 18 53 18 54 -1 37 -11 -10 -24
-15 -29 -12 -16 9 -61 -18 -64 -39 -2 -11 -12 -24 -24 -29 -26 -12 -74 -86
-74 -114 0 -11 -4 -24 -10 -27 -5 -3 -17 -23 -27 -43 -9 -20 -23 -41 -30 -45
-7 -5 -11 -12 -8 -18 4 -5 1 -9 -4 -9 -6 0 -11 -8 -11 -18 0 -19 34 -24 58 -8
11 7 11 4 0 -13 -7 -12 -16 -21 -21 -21 -4 0 -5 -6 -1 -12 5 -9 3 -9 -9 1 -14
11 -18 11 -23 -5 -10 -33 -28 -68 -41 -85 -7 -8 -18 -53 -24 -100 -6 -46 -13
-86 -15 -88 -2 -2 -3 39 -2 92 1 97 -5 124 -22 97 -7 -11 -10 -8 -10 13 0 36
-12 34 -44 -7 -14 -19 -41 -44 -60 -56 -26 -15 -37 -31 -42 -57 -4 -21 -14
-37 -23 -40 -21 -5 -89 -134 -98 -183 -3 -19 -11 -41 -17 -49 -11 -15 -32 -48
-42 -71 -4 -8 -16 -26 -26 -39 -10 -13 -18 -32 -18 -42 0 -10 -9 -24 -20 -31
-11 -7 -20 -20 -20 -30 0 -9 -4 -18 -8 -20 -11 -4 -47 -83 -71 -155 -11 -33
-27 -73 -35 -89 -21 -39 -63 -145 -88 -221 -25 -78 -48 -85 -48 -15 0 26 3 58
7 72 l7 25 7 -25 c7 -29 6 -32 48 100 16 52 55 167 85 255 30 88 55 168 56
177 0 9 4 18 9 20 15 5 18 81 4 85 -8 3 -13 -4 -13 -16 0 -11 -9 -25 -19 -31
-26 -13 -31 -13 -31 5 0 8 -6 16 -12 16 -7 1 -20 3 -28 4 -8 0 -23 5 -32 9
-10 5 -29 2 -48 -7 -33 -17 -43 -4 -10 13 23 12 27 35 5 26 -9 -3 -15 0 -15
10 0 9 -9 18 -20 21 -11 3 -20 9 -20 13 0 19 13 40 25 40 7 0 18 7 26 16 11
14 14 14 24 1 6 -8 22 -14 35 -15 46 0 52 -2 47 -17 -7 -18 5 -26 49 -32 30
-4 34 -2 31 16 -2 11 -6 24 -10 27 -14 14 -6 44 14 54 16 9 24 8 38 -4 24 -22
31 -20 28 6 -1 17 4 24 19 26 15 2 25 15 33 45 7 23 21 65 32 92 10 28 19 58
19 67 0 9 4 19 9 22 14 9 59 108 67 146 9 46 58 150 109 230 53 83 59 100 37
100 -14 0 -14 2 -3 9 8 5 19 7 25 5 6 -2 20 13 31 33 10 21 28 54 39 73 21 36
23 41 33 90 3 16 10 30 15 30 6 0 8 7 4 15 -3 9 0 15 10 15 10 0 14 6 11 14
-4 9 3 16 17 20 22 5 46 43 46 71 0 8 9 29 20 47 11 18 25 51 31 73 13 53 60
148 77 159 8 4 20 23 28 42 9 22 21 34 33 34 12 0 22 9 26 23 16 57 41 108 55
112 8 3 31 30 50 61 19 31 43 65 53 76 10 11 16 22 13 25 -11 11 16 44 32 41
26 -5 92 85 92 125 0 8 15 20 33 27 68 25 77 30 77 40 0 7 -433 10 -1335 10
l-1335 0 0 -133z m2430 93 c0 -5 -5 -10 -11 -10 -5 0 -7 5 -4 10 3 6 8 10 11
10 2 0 4 -4 4 -10z m1510 -184 c0 -3 -4 -8 -10 -11 -5 -3 -10 -1 -10 4 0 6 5
11 10 11 6 0 10 -2 10 -4z m-3820 -67 c0 -6 -4 -7 -10 -4 -5 3 -10 11 -10 16
0 6 5 7 10 4 6 -3 10 -11 10 -16z m90 -74 c0 -8 -4 -15 -10 -15 -5 0 -10 5
-10 11 0 5 -5 7 -12 3 -7 -4 -8 -3 -4 4 10 17 36 15 36 -3z m37 -21 c-3 -3
-12 -4 -19 -1 -8 3 -5 6 6 6 11 1 17 -2 13 -5z m150 -24 c10 -11 28 -20 41
-20 18 0 23 -5 20 -22 -2 -16 -12 -24 -36 -29 -28 -6 -32 -4 -27 12 5 16 2 17
-25 9 -26 -8 -30 -6 -30 11 0 25 17 59 30 59 6 0 18 -9 27 -20z m121 -182 c7
-7 12 -21 12 -31 0 -10 9 -30 20 -44 11 -14 20 -32 20 -39 0 -8 17 -14 48 -16
38 -2 49 -7 57 -26 6 -13 21 -26 34 -29 14 -3 36 -12 50 -19 14 -8 34 -14 43
-14 23 0 32 -18 18 -35 -7 -8 -14 -33 -15 -55 -3 -36 -1 -40 20 -40 13 0 31
-3 41 -7 13 -5 16 -3 11 10 -4 11 -2 14 7 11 8 -3 16 -16 19 -29 2 -14 0 -22
-4 -19 -10 6 -11 -2 -3 -34 4 -14 12 -21 20 -18 8 3 14 1 14 -5 0 -6 7 -8 16
-5 12 5 15 2 10 -9 -3 -9 -2 -14 3 -11 5 3 15 -2 22 -11 12 -14 11 -15 -8 -9
-15 5 -24 2 -31 -10 -6 -10 -16 -15 -26 -11 -12 5 -14 12 -6 32 8 22 7 25 -18
31 -15 4 -33 11 -39 17 -9 6 -21 4 -39 -7 -18 -12 -29 -14 -38 -7 -14 12 -58
3 -50 -10 3 -5 1 -9 -4 -9 -6 0 -12 7 -16 15 -3 8 -16 15 -30 15 -14 0 -28 5
-31 10 -4 6 -11 7 -17 4 -6 -4 -14 0 -19 7 -8 12 -10 12 -18 1 -7 -11 -12 -12
-29 -1 -16 10 -26 10 -47 1 -15 -7 -31 -10 -36 -6 -6 3 -19 -2 -29 -11 -11
-10 -26 -15 -35 -12 -17 7 -21 27 -5 27 6 0 10 7 10 15 0 8 -5 15 -12 15 -6 0
-29 18 -50 41 -21 22 -38 35 -38 28 0 -9 -5 -8 -17 3 -10 8 -26 18 -35 21 -10
4 -18 13 -18 22 0 8 -7 15 -15 15 -9 0 -18 7 -21 15 -5 12 -10 10 -26 -11 -15
-19 -23 -22 -29 -13 -6 10 -11 10 -22 1 -12 -10 -16 -8 -21 13 -4 14 -18 31
-31 37 -14 6 -25 15 -25 20 0 14 65 9 86 -7 22 -17 64 -20 64 -5 0 6 -11 15
-24 21 -15 7 -26 23 -30 41 -8 41 41 90 83 82 15 -3 44 -1 64 4 20 6 51 7 70
2 40 -8 67 3 67 29 0 10 3 21 7 24 11 11 58 8 71 -5z m1276 -28 c29 -18 21
-50 -19 -76 -31 -21 -46 -10 -50 36 -1 18 -9 40 -18 50 -15 18 -14 19 21 22
20 2 38 -2 40 -7 1 -6 13 -17 26 -25z m-94 -5 c11 -13 8 -19 -14 -40 -35 -33
-81 -34 -90 -3 -8 32 18 57 43 41 15 -10 20 -9 25 2 7 19 20 19 36 0z m220 5
c0 -5 -7 -7 -15 -4 -8 4 -15 8 -15 10 0 2 7 4 15 4 8 0 15 -4 15 -10z m40 0
c0 -5 -7 -10 -15 -10 -8 0 -15 5 -15 10 0 6 7 10 15 10 8 0 15 -4 15 -10z
m-632 -82 c11 -18 22 -59 25 -91 5 -50 3 -58 -14 -67 -15 -9 -21 -7 -25 5 -3
8 -12 15 -19 15 -6 0 -24 10 -38 23 l-27 23 20 38 c10 22 17 43 14 47 -3 5 1
9 9 9 8 0 17 7 21 15 8 21 12 19 34 -17z m175 -51 c11 -4 21 -16 24 -27 6 -21
48 -53 78 -57 11 -2 22 -8 23 -13 2 -6 10 -10 18 -10 11 0 14 -9 12 -32 -3
-31 -5 -33 -53 -39 -27 -3 -53 -2 -56 3 -3 6 -15 8 -25 7 -19 -3 -84 50 -84
69 0 6 -5 12 -11 14 -8 3 -8 16 1 46 7 23 16 39 20 37 5 -3 11 3 14 12 5 11
10 13 14 7 4 -6 15 -14 25 -17z m1247 -87 c0 -5 -5 -10 -11 -10 -5 0 -7 5 -4
10 3 6 8 10 11 10 2 0 4 -4 4 -10z m-1890 -49 c0 -12 -20 -25 -27 -18 -7 7 6
27 18 27 5 0 9 -4 9 -9z m1768 -58 c-3 -30 -23 -41 -32 -18 -3 9 -2 13 4 10 6
-3 10 3 10 14 0 12 5 21 11 21 6 0 9 -12 7 -27z m67 -3 c3 -5 -1 -10 -9 -10
-9 0 -16 5 -16 10 0 6 4 10 9 10 6 0 13 -4 16 -10z m731 -102 c-3 -13 -6 -27
-6 -32 0 -4 -7 -6 -15 -2 -18 7 -45 -3 -45 -16 0 -6 -11 -19 -25 -29 -13 -11
-22 -26 -19 -33 6 -16 -36 -29 -60 -20 -21 8 -21 11 14 51 17 18 30 43 30 53
0 16 7 20 33 20 17 0 41 7 51 15 30 23 49 19 42 -7z m-208 -38 c6 0 12 -7 12
-15 0 -8 -5 -15 -11 -15 -7 0 -17 -7 -24 -16 -10 -14 -15 -15 -36 -4 -14 8
-19 15 -11 18 6 2 12 13 12 24 0 16 5 19 23 14 12 -3 28 -6 35 -6z m722 -35
c10 -12 9 -16 -4 -21 -9 -3 -13 -10 -10 -15 3 -5 0 -9 -6 -9 -6 0 -8 -4 -5
-10 3 -5 16 -10 28 -10 13 0 26 -10 33 -24 10 -22 9 -25 -18 -30 -16 -3 -27
-10 -23 -15 12 -20 -15 -21 -35 -1 -11 11 -29 20 -40 20 -11 0 -36 16 -56 35
-34 33 -35 37 -20 54 10 11 32 18 57 19 22 1 48 6 57 12 23 13 28 12 42 -5z
m-2146 -60 c34 -12 47 -35 19 -35 -11 0 -25 -6 -31 -12 -9 -9 -15 -10 -20 -2
-4 7 -16 13 -27 15 -15 3 -20 12 -19 32 1 19 -4 27 -16 27 -28 0 -31 12 -7 25
19 10 25 8 46 -14 14 -14 38 -30 55 -36z m31 38 c18 -14 18 -15 2 -9 -10 3
-23 6 -28 6 -5 0 -9 5 -9 10 0 14 12 12 35 -7z m1282 1 c-3 -3 -12 -4 -19 -1
-8 3 -5 6 6 6 11 1 17 -2 13 -5z m-11 -40 l25 -6 -31 -19 c-36 -22 -50 -18
-50 15 0 28 23 55 28 32 2 -9 15 -19 28 -22z m-1849 19 c-10 -9 42 -33 74 -33
15 0 31 5 34 10 3 6 12 10 18 10 7 0 4 -5 -5 -11 -10 -5 -18 -17 -18 -24 0
-27 -75 -19 -105 10 -29 30 -32 45 -8 45 9 0 13 -3 10 -7z m2172 -14 c-16 -10
-23 -4 -14 10 3 6 11 8 17 5 6 -4 5 -9 -3 -15z m-1939 -19 c0 -13 -27 -13 -53
2 -21 11 -21 11 -2 18 22 8 55 -5 55 -20z m2098 9 c-2 -6 -8 -10 -13 -10 -5 0
-11 4 -13 10 -2 6 4 11 13 11 9 0 15 -5 13 -11z m157 -23 c27 -14 27 -14 6
-25 -28 -15 -27 -31 2 -28 34 3 33 -16 -2 -37 -28 -16 -37 -17 -79 -6 -58 16
-58 16 -42 35 10 11 10 18 1 29 -14 16 -6 23 37 36 39 12 47 12 77 -4z m-2190
-25 c3 -5 -5 -13 -17 -16 -13 -4 -31 -14 -40 -23 -16 -14 -18 -14 -18 0 0 28
61 60 75 39z m-13 -83 c-20 -20 -23 -21 -38 -6 -14 14 -13 16 10 22 14 3 26
12 26 18 0 9 3 9 12 0 10 -10 7 -17 -10 -34z m158 27 c0 -8 -4 -15 -9 -15 -5
0 -17 -3 -26 -7 -16 -5 -15 -4 1 15 22 26 34 28 34 7z m2285 5 c3 -5 -1 -10
-9 -10 -8 0 -18 5 -21 10 -3 6 1 10 9 10 8 0 18 -4 21 -10z m-2631 -16 c15 -6
23 -34 10 -34 -15 0 -44 22 -39 31 7 11 9 11 29 3z m-834 -18 c0 -3 -4 -8 -10
-11 -5 -3 -10 -1 -10 4 0 6 5 11 10 11 6 0 10 -2 10 -4z m2899 -62 c21 -36 21
-36 1 -41 -11 -3 -17 -10 -13 -15 3 -6 0 -8 -8 -6 -8 3 -13 11 -11 17 1 6 -7
11 -18 11 -11 0 -20 -6 -20 -12 0 -9 -3 -9 -8 -3 -4 6 -18 12 -31 12 -32 2
-42 14 -35 41 7 24 34 31 34 8 0 -27 20 -28 53 -2 17 14 33 26 34 26 0 0 11
-16 22 -36z m-1066 -166 c14 -23 21 -28 29 -20 15 15 38 16 38 2 0 -5 -7 -10
-15 -10 -17 0 -21 -35 -5 -45 6 -4 8 -11 4 -16 -3 -6 -10 -6 -17 -1 -7 5 -23
9 -36 8 -25 -3 -60 -62 -61 -104 0 -12 -8 -26 -17 -29 -10 -4 -28 -17 -41 -31
-16 -16 -28 -22 -40 -16 -9 4 -33 9 -52 12 -48 6 -82 44 -84 92 -1 41 4 50 26
54 7 2 21 6 30 10 10 5 36 9 58 9 22 1 40 7 40 13 0 6 9 23 21 38 15 19 30 26
55 26 27 0 34 4 34 20 0 29 12 25 33 -12z m-253 -38 c12 -8 9 -10 -13 -10 -16
0 -26 4 -22 10 8 12 16 12 35 0z m1020 -2 c14 -9 23 -9 30 -2 8 8 18 8 34 1
18 -9 23 -19 22 -44 -1 -38 -30 -47 -39 -13 -5 20 -27 28 -27 10 0 -18 -29
-11 -40 9 -11 21 -14 51 -5 51 3 0 14 -6 25 -12z m-549 -176 c9 14 13 0 10
-34 -1 -10 3 -18 8 -18 6 0 11 -7 11 -15 0 -21 -36 -14 -55 11 -8 10 -14 39
-14 64 l-1 45 17 -33 c12 -24 18 -30 24 -20z m-2521 -357 c0 -8 -4 -15 -9 -15
-13 0 -22 16 -14 24 11 11 23 6 23 -9z m2116 -34 c23 -24 30 -26 39 -15 9 13
13 13 30 0 20 -15 20 -15 -2 -16 l-21 0 19 -39 c15 -32 24 -39 54 -43 19 -2
35 0 35 4 0 4 14 8 31 8 30 0 31 -1 24 -40 -5 -32 -4 -40 8 -40 8 0 24 -23 36
-50 12 -28 26 -48 31 -45 5 3 11 1 14 -3 6 -11 -16 -62 -26 -62 -4 0 -16 -10
-27 -22 -27 -28 -69 -30 -83 -3 -17 30 -48 55 -72 55 -21 0 -61 20 -41 20 15
0 17 50 2 50 -9 0 -9 2 1 9 19 12 -12 35 -38 28 -11 -3 -23 -1 -26 4 -9 15
-27 10 -20 -6 3 -8 1 -15 -5 -15 -6 0 -7 -4 -4 -10 3 -5 1 -10 -6 -10 -8 0 -8
-4 1 -15 11 -13 10 -14 -4 -9 -10 4 -16 1 -16 -8 0 -28 -120 -12 -150 21 -25
26 -60 87 -60 104 0 9 -7 20 -16 25 -17 9 -17 80 1 74 5 -2 12 5 16 15 3 10
10 18 15 18 5 1 20 5 33 9 14 5 27 4 34 -3 17 -17 44 -13 59 8 13 18 37 27 84
30 11 0 34 -12 50 -28z m164 -23 c0 -13 -38 -28 -54 -22 -20 8 -21 24 -2 24 7
0 16 10 20 22 5 22 6 22 20 3 9 -11 16 -23 16 -27z m78 10 c-5 -15 -35 -34
-43 -27 -3 4 -3 14 1 23 7 18 48 23 42 4z m357 -138 c3 -6 -1 -7 -9 -4 -18 7
-21 14 -7 14 6 0 13 -4 16 -10z m25 -70 c0 -11 -7 -20 -15 -20 -17 0 -18 2 -9
24 9 23 24 20 24 -4z m-1553 -357 c-3 -10 -5 -4 -5 12 0 17 2 24 5 18 2 -7 2
-21 0 -30z m693 -9 c0 -8 -5 -12 -10 -9 -6 4 -8 11 -5 16 9 14 15 11 15 -7z
m7 -49 c14 -10 19 -22 16 -35 -7 -28 -27 -25 -41 5 -21 47 -13 57 25 30z
m-1747 1 c0 -3 -4 -8 -10 -11 -5 -3 -10 -1 -10 4 0 6 5 11 10 11 6 0 10 -2 10
-4z m2924 -302 c33 -9 73 -16 89 -16 21 1 27 -4 27 -19 0 -23 -16 -55 -39 -80
-20 -21 -77 -34 -86 -20 -4 7 -14 6 -29 -4 -12 -8 -25 -13 -28 -10 -10 10
-138 -17 -139 -29 -1 -6 0 -17 1 -25 1 -9 -4 -12 -15 -7 -9 3 -25 6 -35 6 -27
0 -57 68 -52 117 3 36 8 43 42 58 29 13 42 14 58 6 34 -18 72 -13 104 14 35
30 26 29 102 9z m-314 -213 c0 -5 3 -16 6 -25 4 -11 1 -16 -10 -16 -9 0 -16
-8 -16 -17 -1 -13 -5 -10 -16 10 -9 16 -13 35 -10 43 6 15 46 20 46 5z m280
-90 c0 -5 -9 -11 -20 -14 -20 -5 -26 3 -13 16 9 10 33 8 33 -2z m891 -63 c22
-28 24 -38 4 -38 -8 0 -15 -5 -15 -11 0 -5 4 -8 9 -5 13 8 36 -23 25 -33 -5
-5 -23 -12 -40 -15 -24 -5 -33 -3 -38 9 -3 9 -3 22 0 27 5 7 -3 9 -22 5 -69
-13 -69 -14 -72 18 -3 27 0 31 24 33 16 1 30 6 33 11 5 8 22 13 64 20 5 0 17
-9 28 -21z m-3603 -14 c12 -8 22 -21 22 -28 0 -21 48 -63 78 -69 15 -3 35 -1
44 4 20 11 129 -14 162 -37 27 -19 55 -18 79 4 19 16 20 16 31 -2 6 -11 18
-26 26 -35 9 -9 17 -31 18 -50 1 -18 19 -63 39 -99 81 -151 76 -132 47 -159
-34 -31 -44 -29 -44 11 0 35 0 35 -39 30 -27 -3 -44 0 -54 11 -9 8 -26 15 -39
15 -14 0 -34 9 -46 20 -23 21 -66 26 -105 11 -22 -9 -28 -6 -49 25 -12 19 -29
32 -35 29 -9 -3 -13 7 -13 31 0 29 -3 35 -16 30 -9 -3 -22 -6 -30 -6 -8 0 -14
-9 -14 -19 0 -30 -15 -33 -44 -10 -15 12 -34 18 -43 15 -8 -4 -21 -2 -28 4 -8
7 -27 6 -59 -4 -57 -17 -72 -3 -30 31 44 35 74 67 74 77 0 14 -49 56 -66 56
-8 0 -22 -5 -32 -11 -15 -10 -28 -7 -65 16 -26 15 -47 23 -47 18 0 -4 -5 -1
-10 9 -16 26 -2 46 28 42 28 -4 115 18 167 41 40 18 66 18 93 -1z m2348 -4
c45 1 52 -2 62 -25 10 -23 9 -25 -11 -27 -12 0 -30 0 -41 1 -10 0 -24 -4 -32
-9 -9 -8 -25 -6 -58 10 -25 11 -46 24 -46 28 0 19 26 33 50 27 14 -4 48 -6 76
-5z m-111 -49 c3 -6 -2 -14 -10 -18 -9 -5 -19 -22 -24 -39 -6 -25 -13 -29 -48
-32 -51 -4 -79 22 -48 44 22 16 45 18 45 4 0 -11 33 -14 43 -3 4 3 -1 11 -10
18 -9 7 -13 17 -9 23 9 14 52 16 61 3z m-180 -31 c17 -19 17 -20 -7 -29 -14
-5 -28 -17 -31 -25 -9 -24 -77 -22 -77 2 0 22 9 34 40 55 32 22 53 21 75 -3z
m-210 -24 c40 -34 40 -34 21 -55 -12 -14 -26 -19 -38 -15 -10 3 -25 1 -33 -6
-10 -8 -16 -7 -27 8 -7 11 -22 21 -33 23 -35 7 -30 44 7 62 46 23 58 21 103
-17z m-1155 -192 c0 -9 -5 -14 -12 -12 -18 6 -21 28 -4 28 9 0 16 -7 16 -16z
m764 -135 c-3 -5 -10 -7 -15 -3 -5 3 -7 10 -3 15 3 5 10 7 15 3 5 -3 7 -10 3
-15z m-799 -25 c36 -24 32 -44 -9 -44 -25 0 -38 6 -50 24 -15 23 -15 25 7 29
12 2 23 5 25 6 1 0 14 -6 27 -15z"/>
<path d="M252 3331 c-21 -13 22 -21 56 -11 23 7 24 8 5 9 -12 1 -27 3 -35 6
-7 3 -19 1 -26 -4z"/>
<path d="M208 3323 c7 -3 16 -2 19 1 4 3 -2 6 -13 5 -11 0 -14 -3 -6 -6z"/>
<path d="M3824 2835 c-16 -13 -17 -16 -4 -25 36 -24 69 1 37 29 -10 8 -19 7
-33 -4z"/>
<path d="M3175 3980 c-3 -11 -12 -20 -19 -20 -18 0 -40 -27 -72 -91 -16 -31
-34 -54 -41 -52 -15 5 -83 -48 -83 -64 0 -7 -4 -13 -10 -13 -5 0 -21 -20 -36
-45 -29 -50 -57 -70 -91 -66 -16 2 -23 -3 -23 -13 0 -9 -11 -22 -25 -28 -28
-13 -30 -19 -13 -36 9 -9 9 -12 -1 -12 -19 0 -41 -26 -41 -49 0 -12 -4 -20 -9
-19 -17 5 -71 -37 -66 -50 3 -7 0 -10 -5 -7 -6 3 -10 13 -10 21 0 31 -31 4
-34 -30 -1 -11 -46 -28 -47 -18 -2 19 -38 -97 -38 -125 -1 -38 -2 -38 45 -18
32 13 35 18 30 41 -6 22 -4 26 11 22 20 -5 47 17 39 31 -3 4 8 18 24 30 17 12
30 27 30 34 0 7 5 19 10 27 9 13 11 13 19 1 8 -12 16 -9 48 18 21 17 43 36 50
41 7 6 25 11 40 11 18 1 22 3 10 6 -14 4 -15 8 -7 18 6 7 19 11 29 8 13 -3 21
2 26 16 5 18 20 25 45 23 3 0 37 29 75 64 38 35 75 62 82 60 7 -3 18 4 24 15
10 19 12 19 35 4 21 -14 24 -14 24 0 0 8 6 15 14 15 8 0 22 8 32 17 9 10 31
16 50 16 19 -1 34 2 34 5 0 13 58 72 69 72 7 0 10 4 7 9 -8 13 32 104 50 114
8 4 14 15 14 22 0 12 -25 15 -144 15 -136 0 -145 -1 -151 -20z"/>
<path d="M3788 3993 c7 -3 16 -2 19 1 4 3 -2 6 -13 5 -11 0 -14 -3 -6 -6z"/>
<path d="M2705 3210 c-3 -5 -1 -10 4 -10 6 0 11 5 11 10 0 6 -2 10 -4 10 -3 0
-8 -4 -11 -10z"/>
<path d="M1475 1960 c-3 -5 -2 -10 4 -10 5 0 13 5 16 10 3 6 2 10 -4 10 -5 0
-13 -4 -16 -10z"/>
<path d="M2614 49 c-3 -6 -25 -20 -48 -30 l-41 -19 67 0 c63 0 67 1 65 22 -2
33 -29 50 -43 27z"/>
</g>
</svg>
